<mxfile host="app.diagrams.net" agent="Mozilla/5.0 (Windows NT 10.0; Win64; x64) AppleWebKit/537.36 (KHTML, like Gecko) Chrome/133.0.0.0 Safari/537.36" version="26.0.16">
  <diagram name="Page-1" id="PHPWQ72G-FbSZg1kjlzN">
    <mxGraphModel dx="2150" dy="883" grid="1" gridSize="10" guides="1" tooltips="1" connect="1" arrows="1" fold="1" page="1" pageScale="1" pageWidth="850" pageHeight="1100" math="0" shadow="0">
      <root>
        <mxCell id="0" />
        <mxCell id="1" parent="0" />
        <mxCell id="mTnGnp5YAqu6k8MlJbpn-2" value="Steam Sensor&lt;div&gt;SEN0121&lt;br&gt;4x&lt;/div&gt;" style="whiteSpace=wrap;html=1;aspect=fixed;" parent="1" vertex="1">
          <mxGeometry x="40" y="250" width="80" height="80" as="geometry" />
        </mxCell>
        <mxCell id="mTnGnp5YAqu6k8MlJbpn-3" value="Analog Sensors" style="rounded=0;whiteSpace=wrap;html=1;" parent="1" vertex="1">
          <mxGeometry x="20" y="180" width="120" height="60" as="geometry" />
        </mxCell>
        <mxCell id="mTnGnp5YAqu6k8MlJbpn-4" value="Digital Sensors" style="rounded=0;whiteSpace=wrap;html=1;" parent="1" vertex="1">
          <mxGeometry x="640" y="180" width="120" height="60" as="geometry" />
        </mxCell>
        <mxCell id="mTnGnp5YAqu6k8MlJbpn-5" value="Analog AC Current Sensor&lt;div&gt;SEN0211&lt;br&gt;&lt;div&gt;1x&lt;/div&gt;&lt;/div&gt;" style="whiteSpace=wrap;html=1;aspect=fixed;" parent="1" vertex="1">
          <mxGeometry x="40" y="340" width="80" height="80" as="geometry" />
        </mxCell>
        <mxCell id="mTnGnp5YAqu6k8MlJbpn-6" value="Analog Hall Current Sensor&lt;div&gt;SEN0214&lt;br&gt;&lt;div&gt;1x&lt;/div&gt;&lt;/div&gt;" style="whiteSpace=wrap;html=1;aspect=fixed;" parent="1" vertex="1">
          <mxGeometry x="40" y="430" width="80" height="80" as="geometry" />
        </mxCell>
        <mxCell id="mTnGnp5YAqu6k8MlJbpn-7" value="Digital Wattmeter&lt;div&gt;SEN0291&lt;br&gt;&lt;div&gt;3x&lt;/div&gt;&lt;/div&gt;" style="whiteSpace=wrap;html=1;aspect=fixed;" parent="1" vertex="1">
          <mxGeometry x="660" y="250" width="80" height="80" as="geometry" />
        </mxCell>
        <mxCell id="mTnGnp5YAqu6k8MlJbpn-8" value="Digital Temperature Sensor&lt;div&gt;DS18B20&lt;br&gt;&lt;div&gt;1x&lt;/div&gt;&lt;/div&gt;" style="whiteSpace=wrap;html=1;aspect=fixed;" parent="1" vertex="1">
          <mxGeometry x="660" y="340" width="80" height="80" as="geometry" />
        </mxCell>
        <mxCell id="mTnGnp5YAqu6k8MlJbpn-10" value="ESP32" style="whiteSpace=wrap;html=1;aspect=fixed;" parent="1" vertex="1">
          <mxGeometry x="345" y="340" width="80" height="80" as="geometry" />
        </mxCell>
        <mxCell id="mTnGnp5YAqu6k8MlJbpn-20" value="" style="endArrow=none;html=1;rounded=0;exitX=1;exitY=0.5;exitDx=0;exitDy=0;strokeColor=light-dark(#00FF00,#FFFFFF);" parent="1" edge="1">
          <mxGeometry width="50" height="50" relative="1" as="geometry">
            <mxPoint x="120" y="270" as="sourcePoint" />
            <mxPoint x="280" y="270" as="targetPoint" />
          </mxGeometry>
        </mxCell>
        <mxCell id="mTnGnp5YAqu6k8MlJbpn-22" value="" style="endArrow=none;html=1;rounded=0;strokeColor=light-dark(#00FF00,#FFFFFF);" parent="1" edge="1">
          <mxGeometry width="50" height="50" relative="1" as="geometry">
            <mxPoint x="280" y="270" as="sourcePoint" />
            <mxPoint x="280" y="350" as="targetPoint" />
          </mxGeometry>
        </mxCell>
        <mxCell id="mTnGnp5YAqu6k8MlJbpn-24" value="" style="endArrow=classic;html=1;rounded=0;entryX=0.01;entryY=0.121;entryDx=0;entryDy=0;entryPerimeter=0;strokeColor=light-dark(#00FF00,#FFFFFF);" parent="1" target="mTnGnp5YAqu6k8MlJbpn-10" edge="1">
          <mxGeometry width="50" height="50" relative="1" as="geometry">
            <mxPoint x="280" y="350" as="sourcePoint" />
            <mxPoint x="260" y="330" as="targetPoint" />
          </mxGeometry>
        </mxCell>
        <mxCell id="mTnGnp5YAqu6k8MlJbpn-25" value="" style="endArrow=none;html=1;rounded=0;exitX=1;exitY=0.5;exitDx=0;exitDy=0;strokeColor=light-dark(#00FF00,#FFFFFF);" parent="1" edge="1">
          <mxGeometry width="50" height="50" relative="1" as="geometry">
            <mxPoint x="120" y="360" as="sourcePoint" />
            <mxPoint x="280" y="360" as="targetPoint" />
          </mxGeometry>
        </mxCell>
        <mxCell id="mTnGnp5YAqu6k8MlJbpn-26" value="" style="endArrow=classic;html=1;rounded=0;entryX=0.01;entryY=0.121;entryDx=0;entryDy=0;entryPerimeter=0;strokeColor=light-dark(#00FF00,#FFFFFF);" parent="1" edge="1">
          <mxGeometry width="50" height="50" relative="1" as="geometry">
            <mxPoint x="279" y="360" as="sourcePoint" />
            <mxPoint x="345" y="360" as="targetPoint" />
          </mxGeometry>
        </mxCell>
        <mxCell id="mTnGnp5YAqu6k8MlJbpn-27" value="" style="endArrow=classic;html=1;rounded=0;entryX=0.01;entryY=0.121;entryDx=0;entryDy=0;entryPerimeter=0;strokeColor=light-dark(#00FF00,#FFFFFF);" parent="1" edge="1">
          <mxGeometry width="50" height="50" relative="1" as="geometry">
            <mxPoint x="279" y="369.65999999999997" as="sourcePoint" />
            <mxPoint x="345" y="369.65999999999997" as="targetPoint" />
          </mxGeometry>
        </mxCell>
        <mxCell id="mTnGnp5YAqu6k8MlJbpn-28" value="" style="endArrow=none;html=1;rounded=0;exitX=1;exitY=0.5;exitDx=0;exitDy=0;strokeColor=light-dark(#00FF00,#FFFFFF);" parent="1" edge="1">
          <mxGeometry width="50" height="50" relative="1" as="geometry">
            <mxPoint x="120" y="450" as="sourcePoint" />
            <mxPoint x="280" y="450" as="targetPoint" />
          </mxGeometry>
        </mxCell>
        <mxCell id="mTnGnp5YAqu6k8MlJbpn-29" value="" style="endArrow=none;html=1;rounded=0;strokeColor=light-dark(#00FF00,#FFFFFF);" parent="1" edge="1">
          <mxGeometry width="50" height="50" relative="1" as="geometry">
            <mxPoint x="280" y="370" as="sourcePoint" />
            <mxPoint x="280" y="450" as="targetPoint" />
          </mxGeometry>
        </mxCell>
        <mxCell id="mTnGnp5YAqu6k8MlJbpn-30" value="" style="endArrow=classic;html=1;rounded=0;entryX=0.996;entryY=0.128;entryDx=0;entryDy=0;entryPerimeter=0;strokeColor=light-dark(#00FF00,#FFFFFF);" parent="1" target="mTnGnp5YAqu6k8MlJbpn-10" edge="1">
          <mxGeometry width="50" height="50" relative="1" as="geometry">
            <mxPoint x="560" y="350" as="sourcePoint" />
            <mxPoint x="510" y="355" as="targetPoint" />
          </mxGeometry>
        </mxCell>
        <mxCell id="mTnGnp5YAqu6k8MlJbpn-31" value="" style="endArrow=none;html=1;rounded=0;strokeColor=light-dark(#00FF00,#FFFFFF);" parent="1" edge="1">
          <mxGeometry width="50" height="50" relative="1" as="geometry">
            <mxPoint x="560" y="270" as="sourcePoint" />
            <mxPoint x="660" y="270" as="targetPoint" />
          </mxGeometry>
        </mxCell>
        <mxCell id="mTnGnp5YAqu6k8MlJbpn-32" value="" style="endArrow=none;html=1;rounded=0;strokeColor=light-dark(#00FF00,#FFFFFF);" parent="1" edge="1">
          <mxGeometry width="50" height="50" relative="1" as="geometry">
            <mxPoint x="560" y="270" as="sourcePoint" />
            <mxPoint x="560" y="350" as="targetPoint" />
          </mxGeometry>
        </mxCell>
        <mxCell id="mTnGnp5YAqu6k8MlJbpn-33" value="" style="endArrow=classic;html=1;rounded=0;entryX=0.996;entryY=0.128;entryDx=0;entryDy=0;entryPerimeter=0;strokeColor=light-dark(#00FF00,#FFFFFF);" parent="1" edge="1">
          <mxGeometry width="50" height="50" relative="1" as="geometry">
            <mxPoint x="580" y="370" as="sourcePoint" />
            <mxPoint x="425" y="369.65999999999997" as="targetPoint" />
          </mxGeometry>
        </mxCell>
        <mxCell id="mTnGnp5YAqu6k8MlJbpn-34" value="" style="endArrow=none;html=1;rounded=0;strokeColor=light-dark(#00FF00,#FFFFFF);" parent="1" edge="1">
          <mxGeometry width="50" height="50" relative="1" as="geometry">
            <mxPoint x="580" y="360" as="sourcePoint" />
            <mxPoint x="660" y="360" as="targetPoint" />
          </mxGeometry>
        </mxCell>
        <mxCell id="mTnGnp5YAqu6k8MlJbpn-35" value="" style="endArrow=classic;html=1;rounded=0;entryX=0.996;entryY=0.128;entryDx=0;entryDy=0;entryPerimeter=0;strokeColor=light-dark(#0000FF,#FFFFFF);" parent="1" edge="1">
          <mxGeometry width="50" height="50" relative="1" as="geometry">
            <mxPoint x="570" y="360" as="sourcePoint" />
            <mxPoint x="425" y="360" as="targetPoint" />
          </mxGeometry>
        </mxCell>
        <mxCell id="mTnGnp5YAqu6k8MlJbpn-36" value="" style="endArrow=none;html=1;rounded=0;strokeColor=light-dark(#0000FF,#FFFFFF);" parent="1" edge="1">
          <mxGeometry width="50" height="50" relative="1" as="geometry">
            <mxPoint x="570" y="280" as="sourcePoint" />
            <mxPoint x="660" y="280" as="targetPoint" />
          </mxGeometry>
        </mxCell>
        <mxCell id="mTnGnp5YAqu6k8MlJbpn-37" value="" style="endArrow=none;html=1;rounded=0;strokeColor=light-dark(#0000FF,#FFFFFF);" parent="1" edge="1">
          <mxGeometry width="50" height="50" relative="1" as="geometry">
            <mxPoint x="570" y="280" as="sourcePoint" />
            <mxPoint x="570" y="360" as="targetPoint" />
          </mxGeometry>
        </mxCell>
        <mxCell id="mTnGnp5YAqu6k8MlJbpn-38" value="" style="endArrow=none;html=1;rounded=0;strokeColor=light-dark(#00FF00,#FFFFFF);" parent="1" edge="1">
          <mxGeometry width="50" height="50" relative="1" as="geometry">
            <mxPoint x="580" y="360" as="sourcePoint" />
            <mxPoint x="580" y="370" as="targetPoint" />
          </mxGeometry>
        </mxCell>
        <mxCell id="mTnGnp5YAqu6k8MlJbpn-39" value="Raspberry&amp;nbsp;&lt;div&gt;Pi&lt;/div&gt;" style="whiteSpace=wrap;html=1;aspect=fixed;" parent="1" vertex="1">
          <mxGeometry x="345" y="160" width="80" height="80" as="geometry" />
        </mxCell>
        <mxCell id="mTnGnp5YAqu6k8MlJbpn-44" value="" style="endArrow=none;html=1;rounded=0;strokeColor=light-dark(#FF0000,#FFFFFF);" parent="1" source="mTnGnp5YAqu6k8MlJbpn-89" edge="1">
          <mxGeometry width="50" height="50" relative="1" as="geometry">
            <mxPoint x="180" y="630" as="sourcePoint" />
            <mxPoint x="180" y="280" as="targetPoint" />
          </mxGeometry>
        </mxCell>
        <mxCell id="mTnGnp5YAqu6k8MlJbpn-45" value="" style="endArrow=classic;html=1;rounded=0;entryX=1.043;entryY=0.404;entryDx=0;entryDy=0;entryPerimeter=0;strokeColor=light-dark(#FF0000,#FFFFFF);" parent="1" edge="1">
          <mxGeometry width="50" height="50" relative="1" as="geometry">
            <mxPoint x="180" y="280" as="sourcePoint" />
            <mxPoint x="120" y="280.31999999999994" as="targetPoint" />
          </mxGeometry>
        </mxCell>
        <mxCell id="mTnGnp5YAqu6k8MlJbpn-46" value="" style="endArrow=classic;html=1;rounded=0;entryX=1.043;entryY=0.404;entryDx=0;entryDy=0;entryPerimeter=0;strokeColor=light-dark(#FF0000,#FFFFFF);" parent="1" edge="1">
          <mxGeometry width="50" height="50" relative="1" as="geometry">
            <mxPoint x="180" y="369.65999999999997" as="sourcePoint" />
            <mxPoint x="120" y="369.9799999999999" as="targetPoint" />
          </mxGeometry>
        </mxCell>
        <mxCell id="mTnGnp5YAqu6k8MlJbpn-47" value="" style="endArrow=classic;html=1;rounded=0;entryX=1.043;entryY=0.404;entryDx=0;entryDy=0;entryPerimeter=0;strokeColor=light-dark(#FF0000,#FFFFFF);" parent="1" edge="1">
          <mxGeometry width="50" height="50" relative="1" as="geometry">
            <mxPoint x="180" y="460" as="sourcePoint" />
            <mxPoint x="120" y="460.31999999999994" as="targetPoint" />
          </mxGeometry>
        </mxCell>
        <mxCell id="mTnGnp5YAqu6k8MlJbpn-48" value="" style="endArrow=none;html=1;rounded=0;strokeColor=light-dark(#FF0000,#FFFFFF);" parent="1" edge="1">
          <mxGeometry width="50" height="50" relative="1" as="geometry">
            <mxPoint x="180" y="460" as="sourcePoint" />
            <mxPoint x="600" y="460" as="targetPoint" />
          </mxGeometry>
        </mxCell>
        <mxCell id="mTnGnp5YAqu6k8MlJbpn-49" value="" style="endArrow=classic;html=1;rounded=0;entryX=0;entryY=0.5;entryDx=0;entryDy=0;strokeColor=light-dark(#FF0000,#FFFFFF);" parent="1" target="mTnGnp5YAqu6k8MlJbpn-7" edge="1">
          <mxGeometry width="50" height="50" relative="1" as="geometry">
            <mxPoint x="600" y="290" as="sourcePoint" />
            <mxPoint x="610" y="290" as="targetPoint" />
          </mxGeometry>
        </mxCell>
        <mxCell id="mTnGnp5YAqu6k8MlJbpn-50" value="" style="endArrow=none;html=1;rounded=0;strokeColor=light-dark(#FF0000,#FFFFFF);" parent="1" edge="1">
          <mxGeometry width="50" height="50" relative="1" as="geometry">
            <mxPoint x="600" y="460" as="sourcePoint" />
            <mxPoint x="600" y="290" as="targetPoint" />
          </mxGeometry>
        </mxCell>
        <mxCell id="mTnGnp5YAqu6k8MlJbpn-51" value="" style="endArrow=classic;html=1;rounded=0;entryX=0;entryY=0.5;entryDx=0;entryDy=0;strokeColor=light-dark(#FF0000,#FFFFFF);" parent="1" edge="1">
          <mxGeometry width="50" height="50" relative="1" as="geometry">
            <mxPoint x="600" y="369.65999999999997" as="sourcePoint" />
            <mxPoint x="660" y="369.65999999999997" as="targetPoint" />
          </mxGeometry>
        </mxCell>
        <mxCell id="mTnGnp5YAqu6k8MlJbpn-53" value="" style="endArrow=none;html=1;rounded=0;" parent="1" edge="1">
          <mxGeometry width="50" height="50" relative="1" as="geometry">
            <mxPoint x="190" y="540" as="sourcePoint" />
            <mxPoint x="190" y="280" as="targetPoint" />
          </mxGeometry>
        </mxCell>
        <mxCell id="mTnGnp5YAqu6k8MlJbpn-54" value="" style="endArrow=classic;html=1;rounded=0;entryX=1;entryY=0.5;entryDx=0;entryDy=0;" parent="1" target="mTnGnp5YAqu6k8MlJbpn-2" edge="1">
          <mxGeometry width="50" height="50" relative="1" as="geometry">
            <mxPoint x="190" y="290" as="sourcePoint" />
            <mxPoint x="380" y="430" as="targetPoint" />
          </mxGeometry>
        </mxCell>
        <mxCell id="mTnGnp5YAqu6k8MlJbpn-55" value="" style="endArrow=classic;html=1;rounded=0;entryX=1;entryY=0.5;entryDx=0;entryDy=0;" parent="1" edge="1">
          <mxGeometry width="50" height="50" relative="1" as="geometry">
            <mxPoint x="190" y="380" as="sourcePoint" />
            <mxPoint x="120" y="379.65999999999997" as="targetPoint" />
          </mxGeometry>
        </mxCell>
        <mxCell id="mTnGnp5YAqu6k8MlJbpn-56" value="" style="endArrow=classic;html=1;rounded=0;entryX=1;entryY=0.5;entryDx=0;entryDy=0;" parent="1" edge="1">
          <mxGeometry width="50" height="50" relative="1" as="geometry">
            <mxPoint x="220" y="469.65999999999997" as="sourcePoint" />
            <mxPoint x="120" y="469.65999999999997" as="targetPoint" />
          </mxGeometry>
        </mxCell>
        <mxCell id="mTnGnp5YAqu6k8MlJbpn-57" value="" style="endArrow=none;html=1;rounded=0;" parent="1" edge="1">
          <mxGeometry width="50" height="50" relative="1" as="geometry">
            <mxPoint x="220" y="470" as="sourcePoint" />
            <mxPoint x="590" y="470" as="targetPoint" />
          </mxGeometry>
        </mxCell>
        <mxCell id="mTnGnp5YAqu6k8MlJbpn-58" value="" style="endArrow=none;html=1;rounded=0;" parent="1" edge="1">
          <mxGeometry width="50" height="50" relative="1" as="geometry">
            <mxPoint x="590" y="470" as="sourcePoint" />
            <mxPoint x="590" y="300" as="targetPoint" />
          </mxGeometry>
        </mxCell>
        <mxCell id="mTnGnp5YAqu6k8MlJbpn-59" value="" style="endArrow=classic;html=1;rounded=0;" parent="1" edge="1">
          <mxGeometry width="50" height="50" relative="1" as="geometry">
            <mxPoint x="590" y="300" as="sourcePoint" />
            <mxPoint x="660" y="300" as="targetPoint" />
          </mxGeometry>
        </mxCell>
        <mxCell id="mTnGnp5YAqu6k8MlJbpn-60" value="" style="endArrow=classic;html=1;rounded=0;" parent="1" edge="1">
          <mxGeometry width="50" height="50" relative="1" as="geometry">
            <mxPoint x="590" y="379.65999999999997" as="sourcePoint" />
            <mxPoint x="660" y="379.65999999999997" as="targetPoint" />
          </mxGeometry>
        </mxCell>
        <mxCell id="mTnGnp5YAqu6k8MlJbpn-61" value="TBD&lt;div&gt;Cable&lt;/div&gt;&lt;div&gt;Wireless&lt;/div&gt;" style="whiteSpace=wrap;html=1;aspect=fixed;" parent="1" vertex="1">
          <mxGeometry x="345" y="250" width="80" height="80" as="geometry" />
        </mxCell>
        <mxCell id="mTnGnp5YAqu6k8MlJbpn-62" value="" style="pointerEvents=1;verticalLabelPosition=bottom;shadow=0;dashed=0;align=center;html=1;verticalAlign=top;shape=mxgraph.electrical.signal_sources.source;aspect=fixed;points=[[0.5,0,0],[1,0.5,0],[0.5,1,0],[0,0.5,0]];elSignalType=dc3;" parent="1" vertex="1">
          <mxGeometry x="150" y="550" width="60" height="60" as="geometry" />
        </mxCell>
        <mxCell id="mTnGnp5YAqu6k8MlJbpn-63" value="" style="endArrow=none;html=1;rounded=0;" parent="1" edge="1">
          <mxGeometry width="50" height="50" relative="1" as="geometry">
            <mxPoint x="220" y="630" as="sourcePoint" />
            <mxPoint x="180" y="630" as="targetPoint" />
          </mxGeometry>
        </mxCell>
        <mxCell id="mTnGnp5YAqu6k8MlJbpn-64" value="" style="endArrow=none;html=1;rounded=0;" parent="1" edge="1">
          <mxGeometry width="50" height="50" relative="1" as="geometry">
            <mxPoint x="180" y="630" as="sourcePoint" />
            <mxPoint x="180" y="610" as="targetPoint" />
          </mxGeometry>
        </mxCell>
        <mxCell id="mTnGnp5YAqu6k8MlJbpn-65" value="" style="pointerEvents=1;verticalLabelPosition=bottom;shadow=0;dashed=0;align=center;html=1;verticalAlign=top;shape=mxgraph.electrical.signal_sources.source;aspect=fixed;points=[[0.5,0,0],[1,0.5,0],[0.5,1,0],[0,0.5,0]];elSignalType=dc3;" parent="1" vertex="1">
          <mxGeometry x="340" y="550" width="60" height="60" as="geometry" />
        </mxCell>
        <mxCell id="mTnGnp5YAqu6k8MlJbpn-66" value="" style="endArrow=none;html=1;rounded=0;strokeColor=light-dark(#FF0000,#FFFFFF);" parent="1" edge="1">
          <mxGeometry width="50" height="50" relative="1" as="geometry">
            <mxPoint x="370" y="550" as="sourcePoint" />
            <mxPoint x="369.79999999999995" y="480" as="targetPoint" />
          </mxGeometry>
        </mxCell>
        <mxCell id="mTnGnp5YAqu6k8MlJbpn-68" value="" style="endArrow=none;html=1;rounded=0;" parent="1" edge="1">
          <mxGeometry width="50" height="50" relative="1" as="geometry">
            <mxPoint x="220" y="540" as="sourcePoint" />
            <mxPoint x="190" y="540" as="targetPoint" />
          </mxGeometry>
        </mxCell>
        <mxCell id="mTnGnp5YAqu6k8MlJbpn-69" value="" style="endArrow=none;html=1;rounded=0;" parent="1" edge="1">
          <mxGeometry width="50" height="50" relative="1" as="geometry">
            <mxPoint x="220" y="630" as="sourcePoint" />
            <mxPoint x="220" y="540" as="targetPoint" />
          </mxGeometry>
        </mxCell>
        <mxCell id="mTnGnp5YAqu6k8MlJbpn-70" value="" style="endArrow=none;html=1;rounded=0;" parent="1" edge="1">
          <mxGeometry width="50" height="50" relative="1" as="geometry">
            <mxPoint x="410" y="630" as="sourcePoint" />
            <mxPoint x="370" y="630" as="targetPoint" />
          </mxGeometry>
        </mxCell>
        <mxCell id="mTnGnp5YAqu6k8MlJbpn-71" value="" style="endArrow=none;html=1;rounded=0;" parent="1" edge="1">
          <mxGeometry width="50" height="50" relative="1" as="geometry">
            <mxPoint x="369.8" y="630" as="sourcePoint" />
            <mxPoint x="369.8" y="610" as="targetPoint" />
          </mxGeometry>
        </mxCell>
        <mxCell id="mTnGnp5YAqu6k8MlJbpn-73" value="" style="endArrow=none;html=1;rounded=0;" parent="1" edge="1">
          <mxGeometry width="50" height="50" relative="1" as="geometry">
            <mxPoint x="410" y="630" as="sourcePoint" />
            <mxPoint x="410" y="540" as="targetPoint" />
          </mxGeometry>
        </mxCell>
        <mxCell id="mTnGnp5YAqu6k8MlJbpn-78" value="" style="endArrow=none;html=1;rounded=0;" parent="1" edge="1">
          <mxGeometry width="50" height="50" relative="1" as="geometry">
            <mxPoint x="380" y="540" as="sourcePoint" />
            <mxPoint x="410" y="540" as="targetPoint" />
          </mxGeometry>
        </mxCell>
        <mxCell id="mTnGnp5YAqu6k8MlJbpn-79" value="" style="endArrow=none;html=1;rounded=0;" parent="1" edge="1">
          <mxGeometry width="50" height="50" relative="1" as="geometry">
            <mxPoint x="380" y="540" as="sourcePoint" />
            <mxPoint x="380" y="480" as="targetPoint" />
          </mxGeometry>
        </mxCell>
        <mxCell id="mTnGnp5YAqu6k8MlJbpn-80" value="" style="endArrow=classic;html=1;rounded=0;strokeColor=light-dark(#FF0000,#FFFFFF);" parent="1" edge="1">
          <mxGeometry width="50" height="50" relative="1" as="geometry">
            <mxPoint x="370" y="480" as="sourcePoint" />
            <mxPoint x="369.8" y="420" as="targetPoint" />
          </mxGeometry>
        </mxCell>
        <mxCell id="mTnGnp5YAqu6k8MlJbpn-81" value="" style="endArrow=classic;html=1;rounded=0;" parent="1" edge="1">
          <mxGeometry width="50" height="50" relative="1" as="geometry">
            <mxPoint x="380" y="480" as="sourcePoint" />
            <mxPoint x="379.8" y="420" as="targetPoint" />
          </mxGeometry>
        </mxCell>
        <mxCell id="mTnGnp5YAqu6k8MlJbpn-82" value="" style="ellipse;whiteSpace=wrap;html=1;aspect=fixed;strokeColor=light-dark(#000000,#FFFFFF);fillColor=light-dark(#000000,#FFFFFF);" parent="1" vertex="1">
          <mxGeometry x="188" y="378" width="4" height="4" as="geometry" />
        </mxCell>
        <mxCell id="mTnGnp5YAqu6k8MlJbpn-85" value="" style="ellipse;whiteSpace=wrap;html=1;aspect=fixed;strokeColor=light-dark(#000000,#FFFFFF);fillColor=light-dark(#000000,#FFFFFF);" parent="1" vertex="1">
          <mxGeometry x="188" y="468" width="4" height="4" as="geometry" />
        </mxCell>
        <mxCell id="mTnGnp5YAqu6k8MlJbpn-86" value="" style="ellipse;whiteSpace=wrap;html=1;aspect=fixed;strokeColor=light-dark(#000000,#FFFFFF);fillColor=light-dark(#000000,#FFFFFF);" parent="1" vertex="1">
          <mxGeometry x="588" y="378" width="4" height="4" as="geometry" />
        </mxCell>
        <mxCell id="mTnGnp5YAqu6k8MlJbpn-88" value="" style="ellipse;whiteSpace=wrap;html=1;aspect=fixed;strokeColor=light-dark(#FF0000,#FFFFFF);fillColor=light-dark(#FF0000,#FFFFFF);" parent="1" vertex="1">
          <mxGeometry x="598" y="368" width="4" height="4" as="geometry" />
        </mxCell>
        <mxCell id="mTnGnp5YAqu6k8MlJbpn-90" value="" style="endArrow=none;html=1;rounded=0;strokeColor=light-dark(#FF0000,#FFFFFF);" parent="1" target="mTnGnp5YAqu6k8MlJbpn-89" edge="1">
          <mxGeometry width="50" height="50" relative="1" as="geometry">
            <mxPoint x="180" y="550" as="sourcePoint" />
            <mxPoint x="180" y="280" as="targetPoint" />
          </mxGeometry>
        </mxCell>
        <mxCell id="mTnGnp5YAqu6k8MlJbpn-89" value="" style="ellipse;whiteSpace=wrap;html=1;aspect=fixed;strokeColor=light-dark(#FF0000,#FFFFFF);fillColor=light-dark(#FF0000,#FFFFFF);" parent="1" vertex="1">
          <mxGeometry x="178" y="368" width="4" height="4" as="geometry" />
        </mxCell>
        <mxCell id="mTnGnp5YAqu6k8MlJbpn-91" value="" style="ellipse;whiteSpace=wrap;html=1;aspect=fixed;strokeColor=light-dark(#FF0000,#FFFFFF);fillColor=light-dark(#FF0000,#FFFFFF);" parent="1" vertex="1">
          <mxGeometry x="178" y="458" width="4" height="4" as="geometry" />
        </mxCell>
        <mxCell id="mTnGnp5YAqu6k8MlJbpn-93" value="" style="pointerEvents=1;verticalLabelPosition=bottom;shadow=0;dashed=0;align=center;html=1;verticalAlign=top;shape=mxgraph.electrical.signal_sources.source;aspect=fixed;points=[[0.5,0,0],[1,0.5,0],[0.5,1,0],[0,0.5,0]];elSignalType=dc3;" parent="1" vertex="1">
          <mxGeometry x="420" y="550" width="60" height="60" as="geometry" />
        </mxCell>
        <mxCell id="mTnGnp5YAqu6k8MlJbpn-94" value="" style="endArrow=none;html=1;rounded=0;strokeColor=light-dark(#FF0000,#FFFFFF);" parent="1" edge="1">
          <mxGeometry width="50" height="50" relative="1" as="geometry">
            <mxPoint x="449" y="550" as="sourcePoint" />
            <mxPoint x="450" y="170" as="targetPoint" />
          </mxGeometry>
        </mxCell>
        <mxCell id="mTnGnp5YAqu6k8MlJbpn-95" value="" style="endArrow=none;html=1;rounded=0;" parent="1" edge="1">
          <mxGeometry width="50" height="50" relative="1" as="geometry">
            <mxPoint x="490" y="630" as="sourcePoint" />
            <mxPoint x="450" y="630" as="targetPoint" />
          </mxGeometry>
        </mxCell>
        <mxCell id="mTnGnp5YAqu6k8MlJbpn-96" value="" style="endArrow=none;html=1;rounded=0;" parent="1" edge="1">
          <mxGeometry width="50" height="50" relative="1" as="geometry">
            <mxPoint x="449.8" y="630" as="sourcePoint" />
            <mxPoint x="449.8" y="610" as="targetPoint" />
          </mxGeometry>
        </mxCell>
        <mxCell id="mTnGnp5YAqu6k8MlJbpn-97" value="" style="endArrow=none;html=1;rounded=0;" parent="1" edge="1">
          <mxGeometry width="50" height="50" relative="1" as="geometry">
            <mxPoint x="490" y="630" as="sourcePoint" />
            <mxPoint x="490" y="540" as="targetPoint" />
          </mxGeometry>
        </mxCell>
        <mxCell id="mTnGnp5YAqu6k8MlJbpn-98" value="" style="endArrow=none;html=1;rounded=0;" parent="1" edge="1">
          <mxGeometry width="50" height="50" relative="1" as="geometry">
            <mxPoint x="460" y="540" as="sourcePoint" />
            <mxPoint x="490" y="540" as="targetPoint" />
          </mxGeometry>
        </mxCell>
        <mxCell id="mTnGnp5YAqu6k8MlJbpn-99" value="" style="endArrow=none;html=1;rounded=0;" parent="1" edge="1">
          <mxGeometry width="50" height="50" relative="1" as="geometry">
            <mxPoint x="460" y="540" as="sourcePoint" />
            <mxPoint x="460" y="180" as="targetPoint" />
          </mxGeometry>
        </mxCell>
        <mxCell id="mTnGnp5YAqu6k8MlJbpn-101" value="" style="endArrow=classic;html=1;rounded=0;" parent="1" edge="1">
          <mxGeometry width="50" height="50" relative="1" as="geometry">
            <mxPoint x="460" y="180" as="sourcePoint" />
            <mxPoint x="425" y="180" as="targetPoint" />
          </mxGeometry>
        </mxCell>
        <mxCell id="mTnGnp5YAqu6k8MlJbpn-102" value="" style="endArrow=classic;html=1;rounded=0;strokeColor=light-dark(#FF0000,#FFFFFF);" parent="1" edge="1">
          <mxGeometry width="50" height="50" relative="1" as="geometry">
            <mxPoint x="450" y="170" as="sourcePoint" />
            <mxPoint x="425" y="170" as="targetPoint" />
          </mxGeometry>
        </mxCell>
        <mxCell id="mTnGnp5YAqu6k8MlJbpn-103" value="5V" style="rounded=0;whiteSpace=wrap;html=1;" parent="1" vertex="1">
          <mxGeometry x="160" y="560" width="40" height="40" as="geometry" />
        </mxCell>
        <mxCell id="mTnGnp5YAqu6k8MlJbpn-105" value="5V" style="rounded=0;whiteSpace=wrap;html=1;" parent="1" vertex="1">
          <mxGeometry x="350" y="560" width="40" height="40" as="geometry" />
        </mxCell>
        <mxCell id="mTnGnp5YAqu6k8MlJbpn-106" value="5V" style="rounded=0;whiteSpace=wrap;html=1;" parent="1" vertex="1">
          <mxGeometry x="430" y="560" width="40" height="40" as="geometry" />
        </mxCell>
        <mxCell id="P0gIUpOkCcDXu3dDFF0s-1" value="Screen" style="rounded=0;whiteSpace=wrap;html=1;" vertex="1" parent="1">
          <mxGeometry x="325" y="40" width="120" height="60" as="geometry" />
        </mxCell>
        <mxCell id="P0gIUpOkCcDXu3dDFF0s-3" value="" style="endArrow=classic;startArrow=classic;html=1;rounded=0;strokeColor=light-dark(#00FF00,#FFFFFF);" edge="1" parent="1">
          <mxGeometry width="50" height="50" relative="1" as="geometry">
            <mxPoint x="384.5" y="160" as="sourcePoint" />
            <mxPoint x="384.5" y="100" as="targetPoint" />
          </mxGeometry>
        </mxCell>
        <mxCell id="P0gIUpOkCcDXu3dDFF0s-4" value="HDMI" style="edgeLabel;html=1;align=center;verticalAlign=middle;resizable=0;points=[];" vertex="1" connectable="0" parent="P0gIUpOkCcDXu3dDFF0s-3">
          <mxGeometry x="-0.0667" y="1" relative="1" as="geometry">
            <mxPoint x="17" as="offset" />
          </mxGeometry>
        </mxCell>
        <mxCell id="P0gIUpOkCcDXu3dDFF0s-5" value="" style="pointerEvents=1;verticalLabelPosition=bottom;shadow=0;dashed=0;align=center;html=1;verticalAlign=top;shape=mxgraph.electrical.signal_sources.source;aspect=fixed;points=[[0.5,0,0],[1,0.5,0],[0.5,1,0],[0,0.5,0]];elSignalType=dc3;" vertex="1" parent="1">
          <mxGeometry x="500" y="550" width="60" height="60" as="geometry" />
        </mxCell>
        <mxCell id="P0gIUpOkCcDXu3dDFF0s-6" value="" style="endArrow=none;html=1;rounded=0;strokeColor=light-dark(#FF0000,#FFFFFF);" edge="1" parent="1">
          <mxGeometry width="50" height="50" relative="1" as="geometry">
            <mxPoint x="530" y="550" as="sourcePoint" />
            <mxPoint x="530" y="50" as="targetPoint" />
          </mxGeometry>
        </mxCell>
        <mxCell id="P0gIUpOkCcDXu3dDFF0s-7" value="" style="endArrow=none;html=1;rounded=0;" edge="1" parent="1">
          <mxGeometry width="50" height="50" relative="1" as="geometry">
            <mxPoint x="570" y="630" as="sourcePoint" />
            <mxPoint x="530" y="630" as="targetPoint" />
          </mxGeometry>
        </mxCell>
        <mxCell id="P0gIUpOkCcDXu3dDFF0s-8" value="" style="endArrow=none;html=1;rounded=0;" edge="1" parent="1">
          <mxGeometry width="50" height="50" relative="1" as="geometry">
            <mxPoint x="529.8" y="630" as="sourcePoint" />
            <mxPoint x="529.8" y="610" as="targetPoint" />
          </mxGeometry>
        </mxCell>
        <mxCell id="P0gIUpOkCcDXu3dDFF0s-9" value="" style="endArrow=none;html=1;rounded=0;" edge="1" parent="1">
          <mxGeometry width="50" height="50" relative="1" as="geometry">
            <mxPoint x="570" y="630" as="sourcePoint" />
            <mxPoint x="570" y="540" as="targetPoint" />
          </mxGeometry>
        </mxCell>
        <mxCell id="P0gIUpOkCcDXu3dDFF0s-10" value="" style="endArrow=none;html=1;rounded=0;" edge="1" parent="1">
          <mxGeometry width="50" height="50" relative="1" as="geometry">
            <mxPoint x="540" y="540" as="sourcePoint" />
            <mxPoint x="570" y="540" as="targetPoint" />
          </mxGeometry>
        </mxCell>
        <mxCell id="P0gIUpOkCcDXu3dDFF0s-11" value="" style="endArrow=none;html=1;rounded=0;" edge="1" parent="1">
          <mxGeometry width="50" height="50" relative="1" as="geometry">
            <mxPoint x="540" y="540" as="sourcePoint" />
            <mxPoint x="540" y="60" as="targetPoint" />
          </mxGeometry>
        </mxCell>
        <mxCell id="P0gIUpOkCcDXu3dDFF0s-12" value="230V" style="rounded=0;whiteSpace=wrap;html=1;" vertex="1" parent="1">
          <mxGeometry x="510" y="560" width="40" height="40" as="geometry" />
        </mxCell>
        <mxCell id="P0gIUpOkCcDXu3dDFF0s-13" value="" style="endArrow=classic;html=1;rounded=0;" edge="1" parent="1">
          <mxGeometry width="50" height="50" relative="1" as="geometry">
            <mxPoint x="540" y="60" as="sourcePoint" />
            <mxPoint x="445" y="59.599999999999994" as="targetPoint" />
          </mxGeometry>
        </mxCell>
        <mxCell id="P0gIUpOkCcDXu3dDFF0s-14" value="" style="endArrow=classic;html=1;rounded=0;strokeColor=light-dark(#FF0000,#FFFFFF);" edge="1" parent="1">
          <mxGeometry width="50" height="50" relative="1" as="geometry">
            <mxPoint x="530" y="50" as="sourcePoint" />
            <mxPoint x="445" y="49.599999999999994" as="targetPoint" />
          </mxGeometry>
        </mxCell>
        <mxCell id="P0gIUpOkCcDXu3dDFF0s-15" value="" style="points=[[0.005,0.09,0],[0.08,0,0],[0.76,0.25,0],[1,0.92,0],[0.91,0.995,0],[0.57,0.995,0],[0.045,0.955,0],[0.005,0.43,0]];verticalLabelPosition=bottom;sketch=0;html=1;verticalAlign=top;aspect=fixed;align=center;pointerEvents=1;shape=mxgraph.cisco19.3g_4g_indicator;fillColor=#005073;strokeColor=none;rotation=-45;" vertex="1" parent="1">
          <mxGeometry x="345" y="120" width="25" height="25" as="geometry" />
        </mxCell>
        <mxCell id="P0gIUpOkCcDXu3dDFF0s-108" style="edgeStyle=orthogonalEdgeStyle;rounded=0;orthogonalLoop=1;jettySize=auto;html=1;exitX=1;exitY=0.5;exitDx=0;exitDy=0;entryX=0;entryY=0.5;entryDx=0;entryDy=0;strokeColor=light-dark(#00FF00,#FFFFFF);" edge="1" parent="1" source="P0gIUpOkCcDXu3dDFF0s-23" target="P0gIUpOkCcDXu3dDFF0s-42">
          <mxGeometry relative="1" as="geometry" />
        </mxCell>
        <mxCell id="P0gIUpOkCcDXu3dDFF0s-118" style="edgeStyle=orthogonalEdgeStyle;rounded=0;orthogonalLoop=1;jettySize=auto;html=1;exitX=0;exitY=0.25;exitDx=0;exitDy=0;entryX=1;entryY=0.25;entryDx=0;entryDy=0;strokeColor=light-dark(#FF0000,#FFFFFF);" edge="1" parent="1" source="P0gIUpOkCcDXu3dDFF0s-23" target="P0gIUpOkCcDXu3dDFF0s-115">
          <mxGeometry relative="1" as="geometry" />
        </mxCell>
        <mxCell id="P0gIUpOkCcDXu3dDFF0s-120" style="edgeStyle=orthogonalEdgeStyle;rounded=0;orthogonalLoop=1;jettySize=auto;html=1;exitX=0;exitY=0.75;exitDx=0;exitDy=0;entryX=1;entryY=0.75;entryDx=0;entryDy=0;" edge="1" parent="1" source="P0gIUpOkCcDXu3dDFF0s-23" target="P0gIUpOkCcDXu3dDFF0s-115">
          <mxGeometry relative="1" as="geometry" />
        </mxCell>
        <mxCell id="P0gIUpOkCcDXu3dDFF0s-23" value="Digital Temperature Sensor&lt;div&gt;DS18B20&lt;br&gt;&lt;div&gt;1x&lt;/div&gt;&lt;/div&gt;" style="whiteSpace=wrap;html=1;aspect=fixed;" vertex="1" parent="1">
          <mxGeometry x="180" y="860" width="80" height="80" as="geometry" />
        </mxCell>
        <mxCell id="P0gIUpOkCcDXu3dDFF0s-107" style="edgeStyle=orthogonalEdgeStyle;rounded=0;orthogonalLoop=1;jettySize=auto;html=1;exitX=0;exitY=0.25;exitDx=0;exitDy=0;entryX=1;entryY=0.25;entryDx=0;entryDy=0;strokeColor=light-dark(#FF0000,#FFFFFF);" edge="1" parent="1" source="P0gIUpOkCcDXu3dDFF0s-42" target="P0gIUpOkCcDXu3dDFF0s-23">
          <mxGeometry relative="1" as="geometry" />
        </mxCell>
        <mxCell id="P0gIUpOkCcDXu3dDFF0s-109" style="edgeStyle=orthogonalEdgeStyle;rounded=0;orthogonalLoop=1;jettySize=auto;html=1;exitX=0;exitY=0.75;exitDx=0;exitDy=0;entryX=1;entryY=0.75;entryDx=0;entryDy=0;" edge="1" parent="1" source="P0gIUpOkCcDXu3dDFF0s-42" target="P0gIUpOkCcDXu3dDFF0s-23">
          <mxGeometry relative="1" as="geometry" />
        </mxCell>
        <mxCell id="P0gIUpOkCcDXu3dDFF0s-42" value="Raspberry&amp;nbsp;&lt;div&gt;Pi&lt;/div&gt;" style="whiteSpace=wrap;html=1;aspect=fixed;" vertex="1" parent="1">
          <mxGeometry x="355" y="860" width="80" height="80" as="geometry" />
        </mxCell>
        <mxCell id="P0gIUpOkCcDXu3dDFF0s-81" value="" style="pointerEvents=1;verticalLabelPosition=bottom;shadow=0;dashed=0;align=center;html=1;verticalAlign=top;shape=mxgraph.electrical.signal_sources.source;aspect=fixed;points=[[0.5,0,0],[1,0.5,0],[0.5,1,0],[0,0.5,0]];elSignalType=dc3;" vertex="1" parent="1">
          <mxGeometry x="460" y="960" width="60" height="60" as="geometry" />
        </mxCell>
        <mxCell id="P0gIUpOkCcDXu3dDFF0s-82" value="" style="endArrow=none;html=1;rounded=0;strokeColor=light-dark(#FF0000,#FFFFFF);" edge="1" parent="1">
          <mxGeometry width="50" height="50" relative="1" as="geometry">
            <mxPoint x="490" y="958.9655172413793" as="sourcePoint" />
            <mxPoint x="490" y="870" as="targetPoint" />
          </mxGeometry>
        </mxCell>
        <mxCell id="P0gIUpOkCcDXu3dDFF0s-83" value="" style="endArrow=none;html=1;rounded=0;" edge="1" parent="1">
          <mxGeometry width="50" height="50" relative="1" as="geometry">
            <mxPoint x="530" y="1040" as="sourcePoint" />
            <mxPoint x="490" y="1040" as="targetPoint" />
          </mxGeometry>
        </mxCell>
        <mxCell id="P0gIUpOkCcDXu3dDFF0s-84" value="" style="endArrow=none;html=1;rounded=0;" edge="1" parent="1">
          <mxGeometry width="50" height="50" relative="1" as="geometry">
            <mxPoint x="489.8" y="1040" as="sourcePoint" />
            <mxPoint x="489.8" y="1020" as="targetPoint" />
          </mxGeometry>
        </mxCell>
        <mxCell id="P0gIUpOkCcDXu3dDFF0s-85" value="" style="endArrow=none;html=1;rounded=0;" edge="1" parent="1">
          <mxGeometry width="50" height="50" relative="1" as="geometry">
            <mxPoint x="530" y="1040" as="sourcePoint" />
            <mxPoint x="530" y="950" as="targetPoint" />
          </mxGeometry>
        </mxCell>
        <mxCell id="P0gIUpOkCcDXu3dDFF0s-86" value="" style="endArrow=none;html=1;rounded=0;" edge="1" parent="1">
          <mxGeometry width="50" height="50" relative="1" as="geometry">
            <mxPoint x="500" y="950" as="sourcePoint" />
            <mxPoint x="530" y="950" as="targetPoint" />
          </mxGeometry>
        </mxCell>
        <mxCell id="P0gIUpOkCcDXu3dDFF0s-87" value="" style="endArrow=none;html=1;rounded=0;" edge="1" parent="1">
          <mxGeometry width="50" height="50" relative="1" as="geometry">
            <mxPoint x="500" y="950" as="sourcePoint" />
            <mxPoint x="500" y="880" as="targetPoint" />
          </mxGeometry>
        </mxCell>
        <mxCell id="P0gIUpOkCcDXu3dDFF0s-88" value="" style="endArrow=classic;html=1;rounded=0;" edge="1" parent="1">
          <mxGeometry width="50" height="50" relative="1" as="geometry">
            <mxPoint x="500" y="880" as="sourcePoint" />
            <mxPoint x="435" y="880" as="targetPoint" />
          </mxGeometry>
        </mxCell>
        <mxCell id="P0gIUpOkCcDXu3dDFF0s-89" value="" style="endArrow=classic;html=1;rounded=0;strokeColor=light-dark(#FF0000,#FFFFFF);" edge="1" parent="1">
          <mxGeometry width="50" height="50" relative="1" as="geometry">
            <mxPoint x="490" y="870" as="sourcePoint" />
            <mxPoint x="435" y="870" as="targetPoint" />
          </mxGeometry>
        </mxCell>
        <mxCell id="P0gIUpOkCcDXu3dDFF0s-92" value="5V" style="rounded=0;whiteSpace=wrap;html=1;" vertex="1" parent="1">
          <mxGeometry x="470" y="970" width="40" height="40" as="geometry" />
        </mxCell>
        <mxCell id="P0gIUpOkCcDXu3dDFF0s-93" value="Screen" style="rounded=0;whiteSpace=wrap;html=1;" vertex="1" parent="1">
          <mxGeometry x="335" y="740" width="120" height="60" as="geometry" />
        </mxCell>
        <mxCell id="P0gIUpOkCcDXu3dDFF0s-94" value="" style="endArrow=classic;startArrow=classic;html=1;rounded=0;strokeColor=light-dark(#00FF00,#FFFFFF);" edge="1" parent="1">
          <mxGeometry width="50" height="50" relative="1" as="geometry">
            <mxPoint x="394.5" y="860" as="sourcePoint" />
            <mxPoint x="394.5" y="800" as="targetPoint" />
          </mxGeometry>
        </mxCell>
        <mxCell id="P0gIUpOkCcDXu3dDFF0s-95" value="HDMI" style="edgeLabel;html=1;align=center;verticalAlign=middle;resizable=0;points=[];" vertex="1" connectable="0" parent="P0gIUpOkCcDXu3dDFF0s-94">
          <mxGeometry x="-0.0667" y="1" relative="1" as="geometry">
            <mxPoint x="17" as="offset" />
          </mxGeometry>
        </mxCell>
        <mxCell id="P0gIUpOkCcDXu3dDFF0s-96" value="" style="pointerEvents=1;verticalLabelPosition=bottom;shadow=0;dashed=0;align=center;html=1;verticalAlign=top;shape=mxgraph.electrical.signal_sources.source;aspect=fixed;points=[[0.5,0,0],[1,0.5,0],[0.5,1,0],[0,0.5,0]];elSignalType=dc3;" vertex="1" parent="1">
          <mxGeometry x="540" y="960" width="60" height="60" as="geometry" />
        </mxCell>
        <mxCell id="P0gIUpOkCcDXu3dDFF0s-97" value="" style="endArrow=none;html=1;rounded=0;strokeColor=light-dark(#FF0000,#FFFFFF);" edge="1" parent="1">
          <mxGeometry width="50" height="50" relative="1" as="geometry">
            <mxPoint x="570" y="960" as="sourcePoint" />
            <mxPoint x="570" y="750" as="targetPoint" />
          </mxGeometry>
        </mxCell>
        <mxCell id="P0gIUpOkCcDXu3dDFF0s-98" value="" style="endArrow=none;html=1;rounded=0;" edge="1" parent="1">
          <mxGeometry width="50" height="50" relative="1" as="geometry">
            <mxPoint x="610" y="1040" as="sourcePoint" />
            <mxPoint x="570" y="1040" as="targetPoint" />
          </mxGeometry>
        </mxCell>
        <mxCell id="P0gIUpOkCcDXu3dDFF0s-99" value="" style="endArrow=none;html=1;rounded=0;" edge="1" parent="1">
          <mxGeometry width="50" height="50" relative="1" as="geometry">
            <mxPoint x="569.8" y="1040" as="sourcePoint" />
            <mxPoint x="569.8" y="1020" as="targetPoint" />
          </mxGeometry>
        </mxCell>
        <mxCell id="P0gIUpOkCcDXu3dDFF0s-100" value="" style="endArrow=none;html=1;rounded=0;" edge="1" parent="1">
          <mxGeometry width="50" height="50" relative="1" as="geometry">
            <mxPoint x="610" y="1040" as="sourcePoint" />
            <mxPoint x="610" y="950" as="targetPoint" />
          </mxGeometry>
        </mxCell>
        <mxCell id="P0gIUpOkCcDXu3dDFF0s-101" value="" style="endArrow=none;html=1;rounded=0;" edge="1" parent="1">
          <mxGeometry width="50" height="50" relative="1" as="geometry">
            <mxPoint x="580" y="950" as="sourcePoint" />
            <mxPoint x="610" y="950" as="targetPoint" />
          </mxGeometry>
        </mxCell>
        <mxCell id="P0gIUpOkCcDXu3dDFF0s-102" value="" style="endArrow=none;html=1;rounded=0;" edge="1" parent="1">
          <mxGeometry width="50" height="50" relative="1" as="geometry">
            <mxPoint x="580" y="950" as="sourcePoint" />
            <mxPoint x="580" y="760" as="targetPoint" />
          </mxGeometry>
        </mxCell>
        <mxCell id="P0gIUpOkCcDXu3dDFF0s-103" value="230V" style="rounded=0;whiteSpace=wrap;html=1;" vertex="1" parent="1">
          <mxGeometry x="550" y="970" width="40" height="40" as="geometry" />
        </mxCell>
        <mxCell id="P0gIUpOkCcDXu3dDFF0s-104" value="" style="endArrow=classic;html=1;rounded=0;" edge="1" parent="1">
          <mxGeometry width="50" height="50" relative="1" as="geometry">
            <mxPoint x="580" y="760" as="sourcePoint" />
            <mxPoint x="455" y="759.6" as="targetPoint" />
          </mxGeometry>
        </mxCell>
        <mxCell id="P0gIUpOkCcDXu3dDFF0s-105" value="" style="endArrow=classic;html=1;rounded=0;strokeColor=light-dark(#FF0000,#FFFFFF);" edge="1" parent="1">
          <mxGeometry width="50" height="50" relative="1" as="geometry">
            <mxPoint x="570" y="750" as="sourcePoint" />
            <mxPoint x="455" y="749.6" as="targetPoint" />
          </mxGeometry>
        </mxCell>
        <mxCell id="P0gIUpOkCcDXu3dDFF0s-110" value="Raspberry PI Test With Digital Temperature Sensor" style="rounded=0;whiteSpace=wrap;html=1;" vertex="1" parent="1">
          <mxGeometry x="300" y="660" width="190" height="60" as="geometry" />
        </mxCell>
        <mxCell id="P0gIUpOkCcDXu3dDFF0s-111" value="Peripherals" style="whiteSpace=wrap;html=1;aspect=fixed;" vertex="1" parent="1">
          <mxGeometry x="355" y="970" width="80" height="80" as="geometry" />
        </mxCell>
        <mxCell id="P0gIUpOkCcDXu3dDFF0s-112" value="" style="endArrow=classic;startArrow=classic;html=1;rounded=0;" edge="1" parent="1">
          <mxGeometry width="50" height="50" relative="1" as="geometry">
            <mxPoint x="394" y="970" as="sourcePoint" />
            <mxPoint x="394" y="940" as="targetPoint" />
          </mxGeometry>
        </mxCell>
        <mxCell id="P0gIUpOkCcDXu3dDFF0s-113" value="USB" style="edgeLabel;html=1;align=center;verticalAlign=middle;resizable=0;points=[];" vertex="1" connectable="0" parent="P0gIUpOkCcDXu3dDFF0s-112">
          <mxGeometry x="-0.1029" relative="1" as="geometry">
            <mxPoint x="16" as="offset" />
          </mxGeometry>
        </mxCell>
        <mxCell id="P0gIUpOkCcDXu3dDFF0s-114" value="???&lt;div&gt;Eventually&lt;/div&gt;" style="text;html=1;align=center;verticalAlign=middle;whiteSpace=wrap;rounded=0;" vertex="1" parent="1">
          <mxGeometry x="280" y="120" width="60" height="30" as="geometry" />
        </mxCell>
        <mxCell id="P0gIUpOkCcDXu3dDFF0s-116" style="edgeStyle=orthogonalEdgeStyle;rounded=0;orthogonalLoop=1;jettySize=auto;html=1;exitX=1;exitY=0.5;exitDx=0;exitDy=0;strokeColor=light-dark(#00FF00,#FFFFFF);" edge="1" parent="1" source="P0gIUpOkCcDXu3dDFF0s-115" target="P0gIUpOkCcDXu3dDFF0s-23">
          <mxGeometry relative="1" as="geometry" />
        </mxCell>
        <mxCell id="P0gIUpOkCcDXu3dDFF0s-115" value="Temperature Probe" style="whiteSpace=wrap;html=1;aspect=fixed;" vertex="1" parent="1">
          <mxGeometry x="60" y="860" width="80" height="80" as="geometry" />
        </mxCell>
      </root>
    </mxGraphModel>
  </diagram>
</mxfile>
